<?xml version="1.0" encoding="iso-8859-1"?>
<!-- Uploaded to: SVG Repo, www.svgrepo.com, Generator: SVG Repo Mixer Tools -->
<svg height="800px" width="800px" version="1.1" id="Layer_1" xmlns="http://www.w3.org/2000/svg" xmlns:xlink="http://www.w3.org/1999/xlink" 
	 viewBox="0 0 512 512" xml:space="preserve">
<polygon style="fill:#B4D8F1;" points="512,192 256,462.222 0,192 113.778,49.778 398.222,49.778 "/>
<polygon style="fill:#98C8ED;" points="398.222,49.778 256,49.778 256,462.222 512,192 "/>
<polygon style="fill:#7AB9E8;" points="277.333,192 234.667,192 234.667,439.704 256,462.222 277.333,439.704 "/>
<polygon style="fill:#98C8ED;" points="307.503,170.667 411.631,66.539 398.222,49.778 368.053,49.778 256,161.83 143.947,49.778 
	113.778,49.778 100.369,66.539 204.497,170.667 17.067,170.667 0,192 20.21,213.333 491.79,213.333 512,192 494.933,170.667 "/>
<polygon style="fill:#7AB9E8;" points="494.933,170.667 307.503,170.667 411.631,66.539 398.222,49.778 368.053,49.778 256,161.83 
	256,213.333 491.79,213.333 512,192 "/>
</svg>

